<?xml version="1.0" standalone="no"?>
<!DOCTYPE svg PUBLIC "-//W3C//DTD SVG 20010904//EN"
 "http://www.w3.org/TR/2001/REC-SVG-20010904/DTD/svg10.dtd">
<svg version="1.0" xmlns="http://www.w3.org/2000/svg"
 width="516.000000pt" height="354.000000pt" viewBox="0 0 516.000000 354.000000"
 preserveAspectRatio="xMidYMid meet">

<g transform="translate(0.000000,354.000000) scale(0.100000,-0.100000)"
fill="#000000" stroke="none">
<path d="M0 1770 l0 -1770 2580 0 2580 0 0 1770 0 1770 -2580 0 -2580 0 0
-1770z m2831 190 l179 -165 0 -92 c0 -93 0 -93 -25 -93 -17 0 -40 14 -65 39
-38 37 -40 43 -40 100 0 53 -3 61 -19 61 -29 0 -84 -21 -107 -41 -11 -11 -24
-19 -30 -19 -5 0 -22 -11 -37 -25 -21 -17 -39 -23 -63 -21 -19 1 -34 -1 -34
-6 0 -4 13 -29 29 -55 23 -36 27 -51 20 -65 -6 -11 -10 -42 -9 -71 1 -29 -1
-74 -4 -102 -3 -34 0 -57 11 -76 15 -25 15 -29 -5 -63 -21 -35 -20 -56 1 -84
24 -30 52 -120 51 -162 0 -25 2 -47 5 -50 13 -11 50 -100 57 -134 5 -31 9 -36
28 -30 11 3 29 15 39 27 10 12 25 30 33 40 13 15 18 16 31 6 8 -7 33 -12 54
-10 36 2 39 0 39 -23 0 -13 5 -28 10 -31 6 -4 10 5 10 19 0 14 5 26 10 26 7 0
8 -69 4 -203 -4 -111 -8 -203 -9 -205 -3 -4 -439 158 -446 166 -4 4 -9 332
-12 729 l-5 722 51 30 c29 17 56 29 60 28 5 -1 89 -77 188 -167z m279 -695 l0
-56 -157 3 -158 3 -3 39 c-6 67 -9 66 163 66 l155 0 0 -55z"/>
<path d="M2933 1287 c3 -8 1 -20 -5 -28 -8 -11 -9 -10 -4 4 3 9 1 17 -4 17 -6
0 -10 -11 -10 -25 0 -18 7 -26 26 -31 17 -4 29 -2 35 7 7 11 9 11 9 1 0 -7 5
-10 10 -7 12 7 14 55 2 55 -4 0 -14 -6 -21 -12 -11 -11 -11 -9 -2 10 11 20 9
22 -15 22 -18 0 -24 -4 -21 -13z"/>
</g>
</svg>
